<?xml version="1.0" encoding="UTF-8"?>
<!DOCTYPE svg PUBLIC "-//W3C//DTD SVG 1.1//EN" >
<svg xmlns="http://www.w3.org/2000/svg" version="1.1" width="512px" height="512px" style="shape-rendering:geometricPrecision; text-rendering:geometricPrecision; image-rendering:optimizeQuality; fill-rule:evenodd; clip-rule:evenodd" xmlns:xlink="http://www.w3.org/1999/xlink">
<g><path style="opacity:0.985" fill="#000000" d="M 243.5,41.5 C 329.668,40.4876 395.502,76.1543 441,148.5C 479.837,222.068 478.837,295.068 438,367.5C 398.036,429.087 341.203,462.921 267.5,469C 181.303,470.496 115.47,434.996 70,362.5C 31.1655,288.895 32.1655,215.895 73,143.5C 113.168,81.9859 170.002,47.9859 243.5,41.5 Z M 254.5,127.5 C 297.534,130.376 325.368,152.376 338,193.5C 345.22,238.228 328.72,270.728 288.5,291C 247.299,305.039 213.132,295.205 186,261.5C 164.034,225.697 165.7,191.031 191,157.5C 208.096,138.752 229.263,128.752 254.5,127.5 Z M 252.5,319.5 C 278.438,319.3 304.105,321.8 329.5,327C 342.403,329.856 354.403,334.856 365.5,342C 375.768,351.32 378.268,362.486 373,375.5C 370.588,379.916 367.422,383.749 363.5,387C 309.968,427.975 251.634,436.308 188.5,412C 171.204,404.444 155.704,394.277 142,381.5C 131.057,364.109 134.224,349.942 151.5,339C 170.331,329.291 190.331,323.625 211.5,322C 225.32,321.108 238.987,320.275 252.5,319.5 Z"/></g>
</svg>
